<mxfile host="65bd71144e">
    <diagram name="Page-1" id="1ndoLBcbAtFqXEL8t6yO">
        <mxGraphModel dx="1190" dy="779" grid="1" gridSize="10" guides="1" tooltips="1" connect="1" arrows="1" fold="1" page="1" pageScale="1" pageWidth="827" pageHeight="1169" math="0" shadow="0">
            <root>
                <mxCell id="0"/>
                <mxCell id="1" parent="0"/>
                <mxCell id="1zD_C20xi1P_3utq0cwd-12" style="edgeStyle=orthogonalEdgeStyle;rounded=0;orthogonalLoop=1;jettySize=auto;html=1;exitX=0.5;exitY=1;exitDx=0;exitDy=0;entryX=0.5;entryY=0;entryDx=0;entryDy=0;" parent="1" source="1zD_C20xi1P_3utq0cwd-1" target="1zD_C20xi1P_3utq0cwd-9" edge="1">
                    <mxGeometry relative="1" as="geometry"/>
                </mxCell>
                <mxCell id="1zD_C20xi1P_3utq0cwd-1" value="Bắt đầu" style="ellipse;whiteSpace=wrap;html=1;" parent="1" vertex="1">
                    <mxGeometry x="360" y="90" width="120" height="80" as="geometry"/>
                </mxCell>
                <mxCell id="1zD_C20xi1P_3utq0cwd-5" style="edgeStyle=orthogonalEdgeStyle;rounded=0;orthogonalLoop=1;jettySize=auto;html=1;exitX=0.5;exitY=1;exitDx=0;exitDy=0;entryX=0.5;entryY=0;entryDx=0;entryDy=0;" parent="1" source="1zD_C20xi1P_3utq0cwd-2" target="1zD_C20xi1P_3utq0cwd-4" edge="1">
                    <mxGeometry relative="1" as="geometry"/>
                </mxCell>
                <mxCell id="1zD_C20xi1P_3utq0cwd-2" value="Lấy mẫu vân tay" style="rounded=0;whiteSpace=wrap;html=1;" parent="1" vertex="1">
                    <mxGeometry x="360" y="290" width="120" height="60" as="geometry"/>
                </mxCell>
                <mxCell id="1zD_C20xi1P_3utq0cwd-10" style="edgeStyle=orthogonalEdgeStyle;rounded=0;orthogonalLoop=1;jettySize=auto;html=1;exitX=0.5;exitY=1;exitDx=0;exitDy=0;entryX=0.5;entryY=0;entryDx=0;entryDy=0;" parent="1" source="1zD_C20xi1P_3utq0cwd-4" target="1zD_C20xi1P_3utq0cwd-7" edge="1">
                    <mxGeometry relative="1" as="geometry"/>
                </mxCell>
                <mxCell id="1zD_C20xi1P_3utq0cwd-34" style="edgeStyle=orthogonalEdgeStyle;rounded=0;orthogonalLoop=1;jettySize=auto;html=1;exitX=1;exitY=0.5;exitDx=0;exitDy=0;entryX=0.5;entryY=0;entryDx=0;entryDy=0;" parent="1" source="1zD_C20xi1P_3utq0cwd-4" target="1zD_C20xi1P_3utq0cwd-19" edge="1">
                    <mxGeometry relative="1" as="geometry">
                        <Array as="points">
                            <mxPoint x="505" y="410"/>
                            <mxPoint x="505" y="650"/>
                            <mxPoint x="420" y="650"/>
                        </Array>
                    </mxGeometry>
                </mxCell>
                <mxCell id="1zD_C20xi1P_3utq0cwd-4" value="So sánh mẫu &lt;br&gt;vân tay" style="rhombus;whiteSpace=wrap;html=1;" parent="1" vertex="1">
                    <mxGeometry x="355" y="370" width="130" height="80" as="geometry"/>
                </mxCell>
                <mxCell id="1zD_C20xi1P_3utq0cwd-14" style="edgeStyle=orthogonalEdgeStyle;rounded=0;orthogonalLoop=1;jettySize=auto;html=1;exitX=0.5;exitY=1;exitDx=0;exitDy=0;entryX=0.5;entryY=0;entryDx=0;entryDy=0;" parent="1" source="1zD_C20xi1P_3utq0cwd-7" edge="1">
                    <mxGeometry relative="1" as="geometry">
                        <mxPoint x="420" y="570" as="targetPoint"/>
                    </mxGeometry>
                </mxCell>
                <mxCell id="1zD_C20xi1P_3utq0cwd-7" value="Cho phép mở cửa" style="rounded=0;whiteSpace=wrap;html=1;" parent="1" vertex="1">
                    <mxGeometry x="360" y="470" width="120" height="60" as="geometry"/>
                </mxCell>
                <mxCell id="1zD_C20xi1P_3utq0cwd-13" style="edgeStyle=orthogonalEdgeStyle;rounded=0;orthogonalLoop=1;jettySize=auto;html=1;exitX=0.5;exitY=1;exitDx=0;exitDy=0;entryX=0.5;entryY=0;entryDx=0;entryDy=0;" parent="1" source="1zD_C20xi1P_3utq0cwd-9" target="1zD_C20xi1P_3utq0cwd-2" edge="1">
                    <mxGeometry relative="1" as="geometry"/>
                </mxCell>
                <mxCell id="1zD_C20xi1P_3utq0cwd-35" style="edgeStyle=orthogonalEdgeStyle;rounded=0;orthogonalLoop=1;jettySize=auto;html=1;exitX=1;exitY=0.5;exitDx=0;exitDy=0;" parent="1" edge="1">
                    <mxGeometry relative="1" as="geometry">
                        <mxPoint x="505" y="411" as="targetPoint"/>
                        <mxPoint x="480" y="231" as="sourcePoint"/>
                    </mxGeometry>
                </mxCell>
                <mxCell id="1zD_C20xi1P_3utq0cwd-9" value="Có vân tay &lt;br&gt;trên cảm biến" style="rhombus;whiteSpace=wrap;html=1;" parent="1" vertex="1">
                    <mxGeometry x="355" y="190" width="130" height="80" as="geometry"/>
                </mxCell>
                <mxCell id="1zD_C20xi1P_3utq0cwd-33" style="edgeStyle=orthogonalEdgeStyle;rounded=0;orthogonalLoop=1;jettySize=auto;html=1;exitX=0.5;exitY=1;exitDx=0;exitDy=0;entryX=0.5;entryY=0;entryDx=0;entryDy=0;" parent="1" source="1zD_C20xi1P_3utq0cwd-18" target="1zD_C20xi1P_3utq0cwd-19" edge="1">
                    <mxGeometry relative="1" as="geometry"/>
                </mxCell>
                <mxCell id="1zD_C20xi1P_3utq0cwd-18" value="Lưu lịch sử" style="rounded=0;whiteSpace=wrap;html=1;" parent="1" vertex="1">
                    <mxGeometry x="360" y="570" width="120" height="60" as="geometry"/>
                </mxCell>
                <mxCell id="1zD_C20xi1P_3utq0cwd-19" value="Kết thúc" style="ellipse;whiteSpace=wrap;html=1;" parent="1" vertex="1">
                    <mxGeometry x="360" y="660" width="120" height="80" as="geometry"/>
                </mxCell>
                <mxCell id="1zD_C20xi1P_3utq0cwd-22" value="T" style="text;html=1;align=center;verticalAlign=middle;resizable=0;points=[];autosize=1;strokeColor=none;fillColor=none;" parent="1" vertex="1">
                    <mxGeometry x="420" y="260" width="30" height="30" as="geometry"/>
                </mxCell>
                <mxCell id="1zD_C20xi1P_3utq0cwd-23" value="F" style="text;html=1;align=center;verticalAlign=middle;resizable=0;points=[];autosize=1;strokeColor=none;fillColor=none;" parent="1" vertex="1">
                    <mxGeometry x="470" y="200" width="30" height="30" as="geometry"/>
                </mxCell>
                <mxCell id="1zD_C20xi1P_3utq0cwd-24" value="F" style="text;html=1;align=center;verticalAlign=middle;resizable=0;points=[];autosize=1;strokeColor=none;fillColor=none;" parent="1" vertex="1">
                    <mxGeometry x="470" y="370" width="30" height="30" as="geometry"/>
                </mxCell>
                <mxCell id="1zD_C20xi1P_3utq0cwd-27" value="T" style="text;html=1;align=center;verticalAlign=middle;resizable=0;points=[];autosize=1;strokeColor=none;fillColor=none;" parent="1" vertex="1">
                    <mxGeometry x="420" y="440" width="30" height="30" as="geometry"/>
                </mxCell>
            </root>
        </mxGraphModel>
    </diagram>
</mxfile>